<mxfile host="app.diagrams.net" modified="2022-01-27T14:04:42.325Z" agent="5.0 (Windows NT 10.0; Win64; x64) AppleWebKit/537.36 (KHTML, like Gecko) Chrome/97.0.4692.99 Safari/537.36" etag="P6zdlfaIDhi1s7EZuhJ-" version="16.0.0" type="github">
  <diagram id="C5RBs43oDa-KdzZeNtuy" name="Page-1">
    <mxGraphModel dx="1038" dy="1785" grid="1" gridSize="10" guides="1" tooltips="1" connect="1" arrows="1" fold="1" page="1" pageScale="1" pageWidth="827" pageHeight="1169" math="0" shadow="0">
      <root>
        <mxCell id="WIyWlLk6GJQsqaUBKTNV-0" />
        <mxCell id="WIyWlLk6GJQsqaUBKTNV-1" parent="WIyWlLk6GJQsqaUBKTNV-0" />
        <mxCell id="srxNTBe21aOKfQEN_ixt-71" style="edgeStyle=orthogonalEdgeStyle;rounded=0;orthogonalLoop=1;jettySize=auto;html=1;fontSize=13;strokeWidth=3;" edge="1" parent="WIyWlLk6GJQsqaUBKTNV-1" source="srxNTBe21aOKfQEN_ixt-72" target="srxNTBe21aOKfQEN_ixt-106">
          <mxGeometry relative="1" as="geometry" />
        </mxCell>
        <mxCell id="srxNTBe21aOKfQEN_ixt-72" value="&lt;b&gt;CadastrarEvento&lt;/b&gt;" style="ellipse;whiteSpace=wrap;html=1;strokeWidth=2;" vertex="1" parent="WIyWlLk6GJQsqaUBKTNV-1">
          <mxGeometry x="75" y="-1130" width="200" height="70" as="geometry" />
        </mxCell>
        <mxCell id="srxNTBe21aOKfQEN_ixt-73" style="edgeStyle=orthogonalEdgeStyle;rounded=0;orthogonalLoop=1;jettySize=auto;html=1;fontSize=13;strokeWidth=3;" edge="1" parent="WIyWlLk6GJQsqaUBKTNV-1" source="srxNTBe21aOKfQEN_ixt-74" target="srxNTBe21aOKfQEN_ixt-80">
          <mxGeometry relative="1" as="geometry" />
        </mxCell>
        <mxCell id="srxNTBe21aOKfQEN_ixt-74" value="&amp;nbsp; Digite a Data desejada:" style="shape=display;whiteSpace=wrap;html=1;fontSize=13;strokeWidth=2;" vertex="1" parent="WIyWlLk6GJQsqaUBKTNV-1">
          <mxGeometry x="70" y="-740" width="220" height="70" as="geometry" />
        </mxCell>
        <mxCell id="srxNTBe21aOKfQEN_ixt-75" style="edgeStyle=orthogonalEdgeStyle;rounded=0;orthogonalLoop=1;jettySize=auto;html=1;fontSize=13;strokeWidth=3;" edge="1" parent="WIyWlLk6GJQsqaUBKTNV-1" source="srxNTBe21aOKfQEN_ixt-78" target="srxNTBe21aOKfQEN_ixt-84">
          <mxGeometry relative="1" as="geometry">
            <Array as="points">
              <mxPoint x="180" y="-360" />
              <mxPoint x="180" y="-360" />
            </Array>
          </mxGeometry>
        </mxCell>
        <mxCell id="srxNTBe21aOKfQEN_ixt-76" style="edgeStyle=orthogonalEdgeStyle;rounded=0;orthogonalLoop=1;jettySize=auto;html=1;entryX=0;entryY=0;entryDx=118.75;entryDy=75;entryPerimeter=0;fontSize=13;strokeWidth=3;" edge="1" parent="WIyWlLk6GJQsqaUBKTNV-1" source="srxNTBe21aOKfQEN_ixt-78" target="srxNTBe21aOKfQEN_ixt-82">
          <mxGeometry relative="1" as="geometry" />
        </mxCell>
        <mxCell id="srxNTBe21aOKfQEN_ixt-77" value="Não" style="edgeLabel;html=1;align=center;verticalAlign=middle;resizable=0;points=[];fontSize=13;" vertex="1" connectable="0" parent="srxNTBe21aOKfQEN_ixt-76">
          <mxGeometry x="0.0595" y="3" relative="1" as="geometry">
            <mxPoint x="-19" y="-17" as="offset" />
          </mxGeometry>
        </mxCell>
        <mxCell id="srxNTBe21aOKfQEN_ixt-78" value="Verificar se a data é posterior a data atual." style="rhombus;whiteSpace=wrap;html=1;fontSize=13;strokeWidth=2;" vertex="1" parent="WIyWlLk6GJQsqaUBKTNV-1">
          <mxGeometry x="100" y="-490" width="160" height="120" as="geometry" />
        </mxCell>
        <mxCell id="srxNTBe21aOKfQEN_ixt-79" style="edgeStyle=orthogonalEdgeStyle;rounded=0;orthogonalLoop=1;jettySize=auto;html=1;entryX=0.5;entryY=0;entryDx=0;entryDy=0;fontSize=13;strokeWidth=3;" edge="1" parent="WIyWlLk6GJQsqaUBKTNV-1" source="srxNTBe21aOKfQEN_ixt-80" target="srxNTBe21aOKfQEN_ixt-78">
          <mxGeometry relative="1" as="geometry" />
        </mxCell>
        <mxCell id="srxNTBe21aOKfQEN_ixt-80" value="Data" style="shape=manualInput;whiteSpace=wrap;html=1;fontSize=13;strokeWidth=2;" vertex="1" parent="WIyWlLk6GJQsqaUBKTNV-1">
          <mxGeometry x="105" y="-620" width="150" height="80" as="geometry" />
        </mxCell>
        <mxCell id="srxNTBe21aOKfQEN_ixt-81" style="edgeStyle=orthogonalEdgeStyle;rounded=0;orthogonalLoop=1;jettySize=auto;html=1;entryX=1;entryY=0.5;entryDx=0;entryDy=0;fontSize=13;strokeWidth=3;" edge="1" parent="WIyWlLk6GJQsqaUBKTNV-1" source="srxNTBe21aOKfQEN_ixt-82" target="srxNTBe21aOKfQEN_ixt-80">
          <mxGeometry relative="1" as="geometry" />
        </mxCell>
        <mxCell id="srxNTBe21aOKfQEN_ixt-82" value="Data Inválida, Digite uma Data posterior a data de hoje." style="shape=display;whiteSpace=wrap;html=1;fontSize=13;strokeWidth=2;" vertex="1" parent="WIyWlLk6GJQsqaUBKTNV-1">
          <mxGeometry x="310" y="-617.5" width="220" height="75" as="geometry" />
        </mxCell>
        <mxCell id="srxNTBe21aOKfQEN_ixt-83" style="edgeStyle=orthogonalEdgeStyle;rounded=0;orthogonalLoop=1;jettySize=auto;html=1;fontSize=13;strokeWidth=3;" edge="1" parent="WIyWlLk6GJQsqaUBKTNV-1" source="srxNTBe21aOKfQEN_ixt-84" target="srxNTBe21aOKfQEN_ixt-86">
          <mxGeometry relative="1" as="geometry">
            <Array as="points">
              <mxPoint x="180" y="-220" />
              <mxPoint x="180" y="-220" />
            </Array>
          </mxGeometry>
        </mxCell>
        <mxCell id="srxNTBe21aOKfQEN_ixt-84" value="Digite a idade do participante:" style="shape=display;whiteSpace=wrap;html=1;fontSize=13;strokeWidth=2;" vertex="1" parent="WIyWlLk6GJQsqaUBKTNV-1">
          <mxGeometry x="70" y="-300" width="220" height="70" as="geometry" />
        </mxCell>
        <mxCell id="srxNTBe21aOKfQEN_ixt-85" style="edgeStyle=orthogonalEdgeStyle;rounded=0;orthogonalLoop=1;jettySize=auto;html=1;entryX=0.5;entryY=0;entryDx=0;entryDy=0;fontSize=13;strokeWidth=3;" edge="1" parent="WIyWlLk6GJQsqaUBKTNV-1" source="srxNTBe21aOKfQEN_ixt-86" target="srxNTBe21aOKfQEN_ixt-89">
          <mxGeometry relative="1" as="geometry" />
        </mxCell>
        <mxCell id="srxNTBe21aOKfQEN_ixt-86" value="Idade" style="shape=manualInput;whiteSpace=wrap;html=1;fontSize=13;strokeWidth=2;" vertex="1" parent="WIyWlLk6GJQsqaUBKTNV-1">
          <mxGeometry x="105" y="-170" width="150" height="80" as="geometry" />
        </mxCell>
        <mxCell id="srxNTBe21aOKfQEN_ixt-87" style="edgeStyle=orthogonalEdgeStyle;rounded=0;orthogonalLoop=1;jettySize=auto;html=1;fontSize=13;strokeWidth=3;" edge="1" parent="WIyWlLk6GJQsqaUBKTNV-1" source="srxNTBe21aOKfQEN_ixt-89" target="srxNTBe21aOKfQEN_ixt-92">
          <mxGeometry relative="1" as="geometry">
            <mxPoint x="180" y="130" as="targetPoint" />
          </mxGeometry>
        </mxCell>
        <mxCell id="srxNTBe21aOKfQEN_ixt-88" style="edgeStyle=orthogonalEdgeStyle;rounded=0;orthogonalLoop=1;jettySize=auto;html=1;fontSize=13;strokeWidth=3;" edge="1" parent="WIyWlLk6GJQsqaUBKTNV-1" source="srxNTBe21aOKfQEN_ixt-89" target="srxNTBe21aOKfQEN_ixt-101">
          <mxGeometry relative="1" as="geometry" />
        </mxCell>
        <mxCell id="srxNTBe21aOKfQEN_ixt-89" value="&lt;br&gt;Verficar se a idade é maior ou &lt;br&gt;igual a 18 anos" style="rhombus;whiteSpace=wrap;html=1;fontSize=13;strokeWidth=2;" vertex="1" parent="WIyWlLk6GJQsqaUBKTNV-1">
          <mxGeometry x="70" y="-50" width="220" height="140" as="geometry" />
        </mxCell>
        <mxCell id="srxNTBe21aOKfQEN_ixt-90" value="Sim" style="edgeLabel;html=1;align=center;verticalAlign=middle;resizable=0;points=[];fontSize=13;" vertex="1" connectable="0" parent="WIyWlLk6GJQsqaUBKTNV-1">
          <mxGeometry x="340" y="20" as="geometry">
            <mxPoint x="-143" y="-223" as="offset" />
          </mxGeometry>
        </mxCell>
        <mxCell id="srxNTBe21aOKfQEN_ixt-91" style="edgeStyle=orthogonalEdgeStyle;rounded=0;orthogonalLoop=1;jettySize=auto;html=1;fontSize=13;strokeWidth=3;" edge="1" parent="WIyWlLk6GJQsqaUBKTNV-1" source="srxNTBe21aOKfQEN_ixt-92" target="srxNTBe21aOKfQEN_ixt-95">
          <mxGeometry relative="1" as="geometry" />
        </mxCell>
        <mxCell id="srxNTBe21aOKfQEN_ixt-92" value="&lt;p style=&quot;line-height: 1&quot;&gt;Listar Palestrantes e Palestrantes por evento&lt;/p&gt;" style="shape=display;whiteSpace=wrap;html=1;fontSize=13;strokeWidth=2;" vertex="1" parent="WIyWlLk6GJQsqaUBKTNV-1">
          <mxGeometry x="50" y="140" width="260" height="90" as="geometry" />
        </mxCell>
        <mxCell id="srxNTBe21aOKfQEN_ixt-93" style="edgeStyle=orthogonalEdgeStyle;rounded=0;orthogonalLoop=1;jettySize=auto;html=1;fontSize=13;strokeWidth=3;" edge="1" parent="WIyWlLk6GJQsqaUBKTNV-1" source="srxNTBe21aOKfQEN_ixt-95" target="srxNTBe21aOKfQEN_ixt-99">
          <mxGeometry relative="1" as="geometry" />
        </mxCell>
        <mxCell id="srxNTBe21aOKfQEN_ixt-94" style="edgeStyle=orthogonalEdgeStyle;rounded=0;orthogonalLoop=1;jettySize=auto;html=1;fontSize=13;strokeWidth=3;" edge="1" parent="WIyWlLk6GJQsqaUBKTNV-1" source="srxNTBe21aOKfQEN_ixt-95" target="srxNTBe21aOKfQEN_ixt-104">
          <mxGeometry relative="1" as="geometry">
            <mxPoint x="180" y="560" as="targetPoint" />
          </mxGeometry>
        </mxCell>
        <mxCell id="srxNTBe21aOKfQEN_ixt-95" value="&lt;br&gt;Verficiar se o número de participantes&lt;br&gt;&amp;nbsp;é menor ou igual a 100" style="rhombus;whiteSpace=wrap;html=1;fontSize=13;strokeWidth=2;" vertex="1" parent="WIyWlLk6GJQsqaUBKTNV-1">
          <mxGeometry x="48.75" y="290" width="262.5" height="190" as="geometry" />
        </mxCell>
        <mxCell id="srxNTBe21aOKfQEN_ixt-96" value="Sim" style="text;html=1;align=center;verticalAlign=middle;resizable=0;points=[];autosize=1;strokeColor=none;fillColor=none;fontSize=13;" vertex="1" parent="WIyWlLk6GJQsqaUBKTNV-1">
          <mxGeometry x="190" y="100" width="40" height="20" as="geometry" />
        </mxCell>
        <mxCell id="srxNTBe21aOKfQEN_ixt-97" value="Não" style="edgeLabel;html=1;align=center;verticalAlign=middle;resizable=0;points=[];fontSize=13;" vertex="1" connectable="0" parent="WIyWlLk6GJQsqaUBKTNV-1">
          <mxGeometry x="351.47058823529414" as="geometry" />
        </mxCell>
        <mxCell id="srxNTBe21aOKfQEN_ixt-98" style="edgeStyle=orthogonalEdgeStyle;rounded=0;orthogonalLoop=1;jettySize=auto;html=1;fontSize=13;strokeWidth=3;entryX=0.5;entryY=0;entryDx=0;entryDy=0;" edge="1" parent="WIyWlLk6GJQsqaUBKTNV-1" source="srxNTBe21aOKfQEN_ixt-99" target="srxNTBe21aOKfQEN_ixt-112">
          <mxGeometry relative="1" as="geometry" />
        </mxCell>
        <mxCell id="srxNTBe21aOKfQEN_ixt-99" value="&lt;p style=&quot;line-height: 1&quot;&gt;&lt;span&gt;&lt;br&gt;O cadastro não pode ser concluído, o número máximo de participantes foi excedido.&lt;/span&gt;&lt;br&gt;&lt;/p&gt;" style="shape=display;whiteSpace=wrap;html=1;fontSize=13;strokeWidth=2;" vertex="1" parent="WIyWlLk6GJQsqaUBKTNV-1">
          <mxGeometry x="390" y="340.5" width="260" height="89" as="geometry" />
        </mxCell>
        <mxCell id="srxNTBe21aOKfQEN_ixt-100" style="edgeStyle=orthogonalEdgeStyle;rounded=0;orthogonalLoop=1;jettySize=auto;html=1;entryX=1;entryY=0.5;entryDx=0;entryDy=0;strokeWidth=3;" edge="1" parent="WIyWlLk6GJQsqaUBKTNV-1" source="srxNTBe21aOKfQEN_ixt-101" target="srxNTBe21aOKfQEN_ixt-112">
          <mxGeometry relative="1" as="geometry">
            <Array as="points">
              <mxPoint x="670" y="20" />
              <mxPoint x="670" y="632" />
            </Array>
          </mxGeometry>
        </mxCell>
        <mxCell id="srxNTBe21aOKfQEN_ixt-101" value="&lt;p style=&quot;line-height: 1&quot;&gt;Cadastro não autorizado, o participante deve possuir idade igual ou superior a 18 anos.&lt;br&gt;&lt;/p&gt;" style="shape=display;whiteSpace=wrap;html=1;fontSize=13;strokeWidth=2;" vertex="1" parent="WIyWlLk6GJQsqaUBKTNV-1">
          <mxGeometry x="390" y="-25" width="260" height="90" as="geometry" />
        </mxCell>
        <mxCell id="srxNTBe21aOKfQEN_ixt-102" value="Não" style="edgeLabel;html=1;align=center;verticalAlign=middle;resizable=0;points=[];fontSize=13;" vertex="1" connectable="0" parent="WIyWlLk6GJQsqaUBKTNV-1">
          <mxGeometry x="361.47058823529414" y="10" as="geometry">
            <mxPoint x="-10" y="350" as="offset" />
          </mxGeometry>
        </mxCell>
        <mxCell id="srxNTBe21aOKfQEN_ixt-103" style="edgeStyle=orthogonalEdgeStyle;rounded=0;orthogonalLoop=1;jettySize=auto;html=1;fontSize=13;strokeWidth=5;" edge="1" parent="WIyWlLk6GJQsqaUBKTNV-1" source="srxNTBe21aOKfQEN_ixt-104" target="srxNTBe21aOKfQEN_ixt-111">
          <mxGeometry relative="1" as="geometry" />
        </mxCell>
        <mxCell id="srxNTBe21aOKfQEN_ixt-104" value="Cadastrar: Data, Idade, Nome" style="rounded=0;whiteSpace=wrap;html=1;fontSize=13;strokeWidth=2;" vertex="1" parent="WIyWlLk6GJQsqaUBKTNV-1">
          <mxGeometry x="20" y="570" width="320" height="100" as="geometry" />
        </mxCell>
        <mxCell id="srxNTBe21aOKfQEN_ixt-105" style="edgeStyle=orthogonalEdgeStyle;rounded=0;orthogonalLoop=1;jettySize=auto;html=1;fontSize=13;strokeWidth=3;" edge="1" parent="WIyWlLk6GJQsqaUBKTNV-1" source="srxNTBe21aOKfQEN_ixt-106" target="srxNTBe21aOKfQEN_ixt-108">
          <mxGeometry relative="1" as="geometry" />
        </mxCell>
        <mxCell id="srxNTBe21aOKfQEN_ixt-106" value="Digíte seu nome completo:" style="shape=display;whiteSpace=wrap;html=1;fontSize=13;strokeWidth=2;" vertex="1" parent="WIyWlLk6GJQsqaUBKTNV-1">
          <mxGeometry x="65" y="-1010" width="220" height="75" as="geometry" />
        </mxCell>
        <mxCell id="srxNTBe21aOKfQEN_ixt-107" style="edgeStyle=orthogonalEdgeStyle;rounded=0;orthogonalLoop=1;jettySize=auto;html=1;entryX=0.484;entryY=0.014;entryDx=0;entryDy=0;entryPerimeter=0;fontSize=13;strokeWidth=3;" edge="1" parent="WIyWlLk6GJQsqaUBKTNV-1" source="srxNTBe21aOKfQEN_ixt-108" target="srxNTBe21aOKfQEN_ixt-74">
          <mxGeometry relative="1" as="geometry" />
        </mxCell>
        <mxCell id="srxNTBe21aOKfQEN_ixt-108" value="Nome" style="shape=manualInput;whiteSpace=wrap;html=1;fontSize=13;strokeWidth=2;" vertex="1" parent="WIyWlLk6GJQsqaUBKTNV-1">
          <mxGeometry x="100" y="-900" width="150" height="80" as="geometry" />
        </mxCell>
        <mxCell id="srxNTBe21aOKfQEN_ixt-109" value="&lt;span style=&quot;color: rgb(0 , 0 , 0) ; font-family: &amp;#34;helvetica&amp;#34; ; font-size: 13px ; font-style: normal ; font-weight: 400 ; letter-spacing: normal ; text-align: center ; text-indent: 0px ; text-transform: none ; word-spacing: 0px ; background-color: rgb(255 , 255 , 255) ; display: inline ; float: none&quot;&gt;Sim&lt;/span&gt;" style="text;whiteSpace=wrap;html=1;fontSize=13;" vertex="1" parent="WIyWlLk6GJQsqaUBKTNV-1">
          <mxGeometry x="185" y="500" width="50" height="30" as="geometry" />
        </mxCell>
        <mxCell id="srxNTBe21aOKfQEN_ixt-110" value="" style="edgeStyle=orthogonalEdgeStyle;rounded=0;orthogonalLoop=1;jettySize=auto;html=1;fontSize=13;strokeWidth=5;" edge="1" parent="WIyWlLk6GJQsqaUBKTNV-1" source="srxNTBe21aOKfQEN_ixt-111" target="srxNTBe21aOKfQEN_ixt-112">
          <mxGeometry relative="1" as="geometry" />
        </mxCell>
        <mxCell id="srxNTBe21aOKfQEN_ixt-111" value="&lt;p style=&quot;line-height: 1&quot;&gt;Cadastro Concluído com Sucesso.&lt;/p&gt;" style="shape=display;whiteSpace=wrap;html=1;fontSize=13;strokeWidth=2;" vertex="1" parent="WIyWlLk6GJQsqaUBKTNV-1">
          <mxGeometry x="25" y="740" width="310" height="89" as="geometry" />
        </mxCell>
        <mxCell id="srxNTBe21aOKfQEN_ixt-112" value="Fim" style="ellipse;whiteSpace=wrap;html=1;fontSize=13;strokeWidth=2;" vertex="1" parent="WIyWlLk6GJQsqaUBKTNV-1">
          <mxGeometry x="435" y="570" width="170" height="124.5" as="geometry" />
        </mxCell>
      </root>
    </mxGraphModel>
  </diagram>
</mxfile>
